<svg width="558" height="359" viewBox="0 0 558 359" fill="none" xmlns="http://www.w3.org/2000/svg">
<path d="M15 1.5H543C550.456 1.5 556.5 7.54415 556.5 15V344C556.5 351.456 550.456 357.5 543 357.5H15C7.54414 357.5 1.5 351.456 1.5 344V15C1.5 7.54416 7.54416 1.5 15 1.5Z" fill="#92ABD2" stroke="black" stroke-width="3"/>
<path d="M3.32892 66.3245C6.0205 291.712 77.9469 357.434 344 356.011H13.3289C7.80608 356.011 3.32892 351.534 3.32892 346.011V66.3245Z" fill="#7A4BFF" fill-opacity="0.55"/>
<path d="M554.671 292.709C551.98 67.3216 480.053 1.59972 214 3.02249L544.671 3.02249C550.194 3.02249 554.671 7.49964 554.671 13.0225L554.671 292.709Z" fill="#FED0FF"/>
</svg>
